<svg clip-rule="evenodd" fill-rule="evenodd" height="512" image-rendering="optimizeQuality" shape-rendering="geometricPrecision" text-rendering="geometricPrecision" viewBox="0 0 512 512" width="512" xmlns="http://www.w3.org/2000/svg" xmlns:xlink="http://www.w3.org/1999/xlink" xmlns:xodm="http://www.corel.com/coreldraw/odm/2003"><linearGradient id="id0" gradientUnits="userSpaceOnUse" x1="256" x2="256" y1="460" y2="52"><stop offset="0" stop-color="#1aa8dc"/><stop offset=".490196" stop-color="#ae3b89"/><stop offset="1" stop-color="#f26270"/></linearGradient><g id="Layer_x0020_1"><path d="m449 460h-386c-34.7 0-63-28.3-63-63v-228h512v228c0 34.7-28.3 63-63 63zm-227-241h-164c-3.9 0-7-3.1-7-7s3.1-7 7-7h164c3.9 0 7 3.1 7 7s-3.1 7-7 7zm0 64h-164c-3.9 0-7-3.1-7-7s3.1-7 7-7h164c3.9 0 7 3.1 7 7s-3.1 7-7 7zm0 64h-164c-3.9 0-7-3.1-7-7s3.1-7 7-7h164c3.9 0 7 3.1 7 7s-3.1 7-7 7zm0 64h-164c-3.9 0-7-3.1-7-7s3.1-7 7-7h164c3.9 0 7 3.1 7 7s-3.1 7-7 7zm232-106h-77c-3.9 0-7-3.1-7-7v-77c0-3.9 3.1-7 7-7 22.2 0 43.7 8.8 58.9 24.1 16 15.9 25.1 37.7 25.1 59.9 0 3.9-3.1 7-7 7zm-70-14h62.6c-1.7-16-9-31.4-20.6-43.1-11.1-11.1-26.1-18-42.1-19.6v62.7zm-28 34h-69.67c3.4 35.88 32.74 63 69.67 63 36.2 0 66.1-27.7 69.7-63zm-84-6.82v-.18-.18-.04c.12-46.2 37.77-83.78 84-83.78 3.9 0 7 3.1 7 7v70h70c3.9 0 7 3.1 7 7 0 46.3-37.7 84-84 84-22.7 0-43.8-8.7-59.6-24.4-15.66-15.76-24.35-36.79-24.4-59.42zm14.35-7.18h62.65v-62.7c-33 3.27-59.36 29.62-62.65 62.7zm-286.35-156v-40c0-16.5 6.5-32.2 18.4-44.2 12-12.1 27.8-18.8 44.6-18.8h386c16.8 0 32.6 6.7 44.6 18.8 11.9 12 18.4 27.7 18.4 44.2v40zm95-44.5h-39c-3.9 0-7-3.1-7-7s3.1-7 7-7h39c3.9 0 7 3.1 7 7s-3.1 7-7 7zm83 0h-39c-3.9 0-7-3.1-7-7s3.1-7 7-7h39c3.9 0 7 3.1 7 7s-3.1 7-7 7zm84 0h-39c-3.9 0-7-3.1-7-7s3.1-7 7-7h39c3.9 0 7 3.1 7 7s-3.1 7-7 7zm170 14c-11.4 0-21-9.6-21-21 0-11.8 9.2-21 21-21s21 9.2 21 21c0 11.4-9.6 21-21 21zm0-28c-4.1 0-7 2.9-7 7 0 3.3 3 7 7 7s7-3.7 7-7c0-4.1-2.9-7-7-7zm-55 28c-10.8 0-21-10.2-21-21 0-11.4 9.6-21 21-21 11.8 0 21 9.2 21 21 0 11.4-9.6 21-21 21zm0-28c-3.3 0-7 3-7 7 0 3.1 3.9 7 7 7 4 0 7-3.7 7-7 0-4.1-2.9-7-7-7z" fill="url(#id0)"/></g></svg>